<svg width="256" height="256" viewBox="0 0 256 256" fill="none" xmlns="http://www.w3.org/2000/svg">
<rect width="256" height="256" fill="#0B1D26"/>
<path d="M32 198.797H88.6681V195.948C68.2839 193.304 62.1686 184.759 62.1686 164.212V70.8338H63.3917L116.391 199H123.729L171.224 70.8338H172.243V184.352C172.243 192.49 167.147 195.338 152.674 195.948V198.797H223V195.948C205.877 195.338 201.8 192.083 201.8 184.352V71.4441C201.8 63.7135 205.877 60.255 223 59.6447V57H171.02L132.494 161.567H131.475L89.4835 57H32V59.6447C49.5304 60.0516 57.0726 69.4097 57.0726 81.616V164.212C57.0726 184.759 51.1612 193.507 32 195.948V198.797Z" fill="white"/>
</svg>
