<svg xmlns="http://www.w3.org/2000/svg"><style>:root svg:not(:target){display:none}</style><svg viewBox="0 0 20 20" fill="none" id="account"><path fill-rule="evenodd" clip-rule="evenodd" d="M10 0a10 10 0 1 0 0 20 10 10 0 0 0 0-20Zm-4.93 16.28c.43-.9 3.05-1.78 4.93-1.78s4.51.88 4.93 1.78a7.9 7.9 0 0 1-9.86 0Zm11.29-1.45c-1.43-1.74-4.9-2.33-6.36-2.33s-4.93.59-6.36 2.33a8.01 8.01 0 1 1 14.36-4.83c0 1.82-.62 3.49-1.64 4.83Zm-6.36-10.83a3.5 3.5 0 0 0-3.5 3.5 3.5 3.5 0 0 0 3.5 3.5 3.5 3.5 0 0 0 3.5-3.5 3.5 3.5 0 0 0-3.5-3.5Zm0 5a1.5 1.5 0 1 1 0-3 1.5 1.5 0 0 1 0 3Z" fill="#fff"></path></svg><svg viewBox="0 0 16 24" fill="none" id="arrow-down"><path d="m16 16-1.41-1.41-5.59 5.58v-20.17h-2v20.17l-5.58-5.59-1.42 1.42 8 8 8-8Z" fill="#fff"></path></svg><svg viewBox="0 0 24 16" fill="none" id="arrow-left"><path d="m16 0-1.41 1.41 5.58 5.59h-20.17v2h20.17l-5.59 5.58 1.42 1.42 8-8-8-8Z" fill="#FBD784"></path></svg><svg viewBox="0 0 24 24" fill="none" id="instagram"><path d="M7.8 2h8.4c3.2 0 5.8 2.6 5.8 5.8v8.4c0 3.2-2.6 5.8-5.8 5.8h-8.4a5.8 5.8 0 0 1-5.8-5.8v-8.4c0-3.2 2.6-5.8 5.8-5.8Zm-.2 2a3.6 3.6 0 0 0-3.6 3.6v8.8a3.6 3.6 0 0 0 3.6 3.6h8.8a3.6 3.6 0 0 0 3.6-3.6v-8.8a3.6 3.6 0 0 0-3.6-3.6h-8.8Zm9.65 1.5a1.25 1.25 0 1 1 0 2.5 1.25 1.25 0 0 1 0-2.5Zm-5.25 1.5a5 5 0 1 1 0 10 5 5 0 0 1 0-10Zm0 2a3 3 0 1 0 0 6 3 3 0 0 0 0-6Z" fill="#fff"></path></svg><svg viewBox="0 0 24 24" fill="none" id="twitter"><path d="M22.46 6.01c-.77.34-1.6.57-2.47.68a4.3 4.3 0 0 0 1.9-2.38 8.6 8.6 0 0 1-2.73 1.05 4.29 4.29 0 0 0-7.32 3.91 12.18 12.18 0 0 1-8.84-4.48 4.27 4.27 0 0 0 1.33 5.73 4.28 4.28 0 0 1-1.95-.54v.05a4.3 4.3 0 0 0 3.44 4.21 4.3 4.3 0 0 1-1.93.07 4.3 4.3 0 0 0 4 2.98 8.61 8.61 0 0 1-6.35 1.78 12.15 12.15 0 0 0 6.58 1.93c7.9 0 12.21-6.54 12.21-12.21l-.01-.56a8.72 8.72 0 0 0 2.14-2.22Z" fill="#fff"></path></svg></svg>