<svg viewBox="0 0 20 20" fill="none" xmlns="http://www.w3.org/2000/svg"><path fill-rule="evenodd" clip-rule="evenodd" d="M10 0a10 10 0 1 0 0 20 10 10 0 0 0 0-20Zm-4.93 16.28c.43-.9 3.05-1.78 4.93-1.78s4.51.88 4.93 1.78a7.9 7.9 0 0 1-9.86 0Zm11.29-1.45c-1.43-1.74-4.9-2.33-6.36-2.33s-4.93.59-6.36 2.33a8.01 8.01 0 1 1 14.36-4.83c0 1.82-.62 3.49-1.64 4.83Zm-6.36-10.83a3.5 3.5 0 0 0-3.5 3.5 3.5 3.5 0 0 0 3.5 3.5 3.5 3.5 0 0 0 3.5-3.5 3.5 3.5 0 0 0-3.5-3.5Zm0 5a1.5 1.5 0 1 1 0-3 1.5 1.5 0 0 1 0 3Z" fill="#fff"/></svg>